<?xml version="1.0" encoding="UTF-8"?>
<svg id="Layer_1" xmlns="http://www.w3.org/2000/svg" version="1.1" viewBox="0 0 400 400">
  <!-- Generator: Adobe Illustrator 29.4.0, SVG Export Plug-In . SVG Version: 2.1.0 Build 152)  -->
  <defs>
    <style>
      .st0 {
        fill: #000647;
      }

      .st1 {
        fill: #fff;
      }
    </style>
  </defs>
  <rect class="st0" x=".9" y="0" width="399.9" height="400.1"/>
  <g>
    <g>
      <path class="st1" d="M264.6,199.9c0,0,.2,0,.2,0,0,0,0,.1,0,.2v.4h.4c0,0,.2,0,.2,0,0,0,0,.1,0,.2v3.9c0,0,0,.2,0,.2s-.1,0-.2,0h-.4v.4c0,0,0,.2,0,.2s-.1,0-.2,0h-1.9c0,0-.2,0-.2,0,0,0,0-.1,0-.2v-.4h-.4c0,0-.2,0-.2,0,0,0,0-.1,0-.2v-3.9c0,0,0-.2,0-.2s.1,0,.2,0h.4v-.4c0,0,0-.2,0-.2s.1,0,.2,0h1.9ZM264.9,205.1v-4.4h-2.4v4.4h2.4Z"/>
      <path class="st1" d="M268.9,200.6h.4c0,0,.2,0,.2,0,0,0,0,.1,0,.2v4.1h1.5v.7h-1.3c0,0-.2,0-.2,0,0,0,0-.1,0-.2v-.4h-.7v.4c0,0,0,.2,0,.2s-.1,0-.2,0h-1.3v-.7h1.5v-4.4h-1.5v-.7h1.3c0,0,.2,0,.2,0,0,0,0,.1,0,.2v.4Z"/>
      <path class="st1" d="M275.8,199.9c0,0,.2,0,.2,0,0,0,0,.1,0,.2v.4h.4c0,0,.2,0,.2,0,0,0,0,.1,0,.2v3.9c0,0,0,.2,0,.2s-.1,0-.2,0h-.4v.4c0,0,0,.2,0,.2s-.1,0-.2,0h-1.9c0,0-.2,0-.2,0,0,0,0-.1,0-.2v-.4h-.4c0,0-.2,0-.2,0,0,0,0-.1,0-.2v-3.9c0,0,0-.2,0-.2s.1,0,.2,0h.4v-.4c0,0,0-.2,0-.2s.1,0,.2,0h1.9ZM276,205.1v-4.4h-2.4v4.4h2.4Z"/>
      <path class="st1" d="M280,200.6h.4c0,0,.2,0,.2,0,0,0,0,.1,0,.2v4.1h1.5v.7h-1.3c0,0-.2,0-.2,0,0,0,0-.1,0-.2v-.4h-.7v.4c0,0,0,.2,0,.2s-.1,0-.2,0h-1.3v-.7h1.5v-4.4h-1.5v-.7h1.3c0,0,.2,0,.2,0,0,0,0,.1,0,.2v.4Z"/>
      <path class="st1" d="M285.4,200.6h.4c0,0,.2,0,.2,0,0,0,0,.1,0,.2v4.1h1.5v.7h-1.3c0,0-.2,0-.2,0,0,0,0-.1,0-.2v-.4h-.7v.4c0,0,0,.2,0,.2s-.1,0-.2,0h-1.3v-.7h1.5v-4.4h-1.5v-.7h1.3c0,0,.2,0,.2,0,0,0,0,.1,0,.2v.4Z"/>
      <path class="st1" d="M292.2,199.9c0,0,.2,0,.2,0,0,0,0,.1,0,.2v.4h.4c0,0,.2,0,.2,0,0,0,0,.1,0,.2v3.9c0,0,0,.2,0,.2s-.1,0-.2,0h-.4v.4c0,0,0,.2,0,.2s-.1,0-.2,0h-1.9c0,0-.2,0-.2,0,0,0,0-.1,0-.2v-.4h-.4c0,0-.2,0-.2,0,0,0,0-.1,0-.2v-3.9c0,0,0-.2,0-.2s.1,0,.2,0h.4v-.4c0,0,0-.2,0-.2s.1,0,.2,0h1.9ZM292.5,205.1v-4.4h-2.4v4.4h2.4Z"/>
      <path class="st1" d="M298,199.9c0,0,.2,0,.2,0,0,0,0,.1,0,.2v.4h.4c0,0,.2,0,.2,0,0,0,0,.1,0,.2v3.9c0,0,0,.2,0,.2s-.1,0-.2,0h-.4v.4c0,0,0,.2,0,.2s-.1,0-.2,0h-1.9c0,0-.2,0-.2,0,0,0,0-.1,0-.2v-.4h-.4c0,0-.2,0-.2,0,0,0,0-.1,0-.2v-3.9c0,0,0-.2,0-.2s.1,0,.2,0h.4v-.4c0,0,0-.2,0-.2s.1,0,.2,0h1.9ZM298.3,205.1v-4.4h-2.4v4.4h2.4Z"/>
      <path class="st1" d="M303.8,199.9c0,0,.2,0,.2,0,0,0,0,.1,0,.2v.4h.4c0,0,.2,0,.2,0,0,0,0,.1,0,.2v3.9c0,0,0,.2,0,.2s-.1,0-.2,0h-.4v.4c0,0,0,.2,0,.2s-.1,0-.2,0h-1.9c0,0-.2,0-.2,0,0,0,0-.1,0-.2v-.4h-.4c0,0-.2,0-.2,0,0,0,0-.1,0-.2v-3.9c0,0,0-.2,0-.2s.1,0,.2,0h.4v-.4c0,0,0-.2,0-.2s.1,0,.2,0h1.9ZM304.1,205.1v-4.4h-2.4v4.4h2.4Z"/>
      <path class="st1" d="M308.1,200.6h.4c0,0,.2,0,.2,0,0,0,0,.1,0,.2v4.1h1.5v.7h-1.3c0,0-.2,0-.2,0,0,0,0-.1,0-.2v-.4h-.7v.4c0,0,0,.2,0,.2s-.1,0-.2,0h-1.3v-.7h1.5v-4.4h-1.5v-.7h1.3c0,0,.2,0,.2,0,0,0,0,.1,0,.2v.4Z"/>
      <path class="st1" d="M314.9,199.9c0,0,.2,0,.2,0,0,0,0,.1,0,.2v.4h.4c0,0,.2,0,.2,0,0,0,0,.1,0,.2v3.9c0,0,0,.2,0,.2s-.1,0-.2,0h-.4v.4c0,0,0,.2,0,.2s-.1,0-.2,0h-1.9c0,0-.2,0-.2,0,0,0,0-.1,0-.2v-.4h-.4c0,0-.2,0-.2,0,0,0,0-.1,0-.2v-3.9c0,0,0-.2,0-.2s.1,0,.2,0h.4v-.4c0,0,0-.2,0-.2s.1,0,.2,0h1.9ZM315.2,205.1v-4.4h-2.4v4.4h2.4Z"/>
      <path class="st1" d="M319.2,200.6h.4c0,0,.2,0,.2,0,0,0,0,.1,0,.2v4.1h1.5v.7h-1.3c0,0-.2,0-.2,0,0,0,0-.1,0-.2v-.4h-.7v.4c0,0,0,.2,0,.2s-.1,0-.2,0h-1.3v-.7h1.5v-4.4h-1.5v-.7h1.3c0,0,.2,0,.2,0,0,0,0,.1,0,.2v.4Z"/>
      <path class="st1" d="M324.5,200.6h.4c0,0,.2,0,.2,0,0,0,0,.1,0,.2v4.1h1.5v.7h-1.3c0,0-.2,0-.2,0,0,0,0-.1,0-.2v-.4h-.7v.4c0,0,0,.2,0,.2s-.1,0-.2,0h-1.3v-.7h1.5v-4.4h-1.5v-.7h1.3c0,0,.2,0,.2,0,0,0,0,.1,0,.2v.4Z"/>
      <path class="st1" d="M331.4,199.9c0,0,.2,0,.2,0,0,0,0,.1,0,.2v.4h.4c0,0,.2,0,.2,0,0,0,0,.1,0,.2v3.9c0,0,0,.2,0,.2s-.1,0-.2,0h-.4v.4c0,0,0,.2,0,.2s-.1,0-.2,0h-1.9c0,0-.2,0-.2,0,0,0,0-.1,0-.2v-.4h-.4c0,0-.2,0-.2,0,0,0,0-.1,0-.2v-3.9c0,0,0-.2,0-.2s.1,0,.2,0h.4v-.4c0,0,0-.2,0-.2s.1,0,.2,0h1.9ZM331.7,205.1v-4.4h-2.4v4.4h2.4Z"/>
      <path class="st1" d="M337.2,199.9c0,0,.2,0,.2,0,0,0,0,.1,0,.2v.4h.4c0,0,.2,0,.2,0,0,0,0,.1,0,.2v3.9c0,0,0,.2,0,.2s-.1,0-.2,0h-.4v.4c0,0,0,.2,0,.2s-.1,0-.2,0h-1.9c0,0-.2,0-.2,0,0,0,0-.1,0-.2v-.4h-.4c0,0-.2,0-.2,0,0,0,0-.1,0-.2v-3.9c0,0,0-.2,0-.2s.1,0,.2,0h.4v-.4c0,0,0-.2,0-.2s.1,0,.2,0h1.9ZM337.4,205.1v-4.4h-2.4v4.4h2.4Z"/>
      <path class="st1" d="M342.9,199.9c0,0,.2,0,.2,0,0,0,0,.1,0,.2v.4h.4c0,0,.2,0,.2,0,0,0,0,.1,0,.2v3.9c0,0,0,.2,0,.2s-.1,0-.2,0h-.4v.4c0,0,0,.2,0,.2s-.1,0-.2,0h-1.9c0,0-.2,0-.2,0,0,0,0-.1,0-.2v-.4h-.4c0,0-.2,0-.2,0,0,0,0-.1,0-.2v-3.9c0,0,0-.2,0-.2s.1,0,.2,0h.4v-.4c0,0,0-.2,0-.2s.1,0,.2,0h1.9ZM343.2,205.1v-4.4h-2.4v4.4h2.4Z"/>
      <path class="st1" d="M347.2,200.6h.4c0,0,.2,0,.2,0,0,0,0,.1,0,.2v4.1h1.5v.7h-1.3c0,0-.2,0-.2,0,0,0,0-.1,0-.2v-.4h-.7v.4c0,0,0,.2,0,.2s-.1,0-.2,0h-1.3v-.7h1.5v-4.4h-1.5v-.7h1.3c0,0,.2,0,.2,0,0,0,0,.1,0,.2v.4Z"/>
      <path class="st1" d="M352.6,200.6h.4c0,0,.2,0,.2,0,0,0,0,.1,0,.2v4.1h1.5v.7h-1.3c0,0-.2,0-.2,0,0,0,0-.1,0-.2v-.4h-.7v.4c0,0,0,.2,0,.2s-.1,0-.2,0h-1.3v-.7h1.5v-4.4h-1.5v-.7h1.3c0,0,.2,0,.2,0,0,0,0,.1,0,.2v.4Z"/>
      <path class="st1" d="M359.4,199.9c0,0,.2,0,.2,0,0,0,0,.1,0,.2v.4h.4c0,0,.2,0,.2,0,0,0,0,.1,0,.2v3.9c0,0,0,.2,0,.2s-.1,0-.2,0h-.4v.4c0,0,0,.2,0,.2s-.1,0-.2,0h-1.9c0,0-.2,0-.2,0,0,0,0-.1,0-.2v-.4h-.4c0,0-.2,0-.2,0,0,0,0-.1,0-.2v-3.9c0,0,0-.2,0-.2s.1,0,.2,0h.4v-.4c0,0,0-.2,0-.2s.1,0,.2,0h1.9ZM359.7,205.1v-4.4h-2.4v4.4h2.4Z"/>
      <path class="st1" d="M365.2,199.9c0,0,.2,0,.2,0,0,0,0,.1,0,.2v.4h.4c0,0,.2,0,.2,0,0,0,0,.1,0,.2v3.9c0,0,0,.2,0,.2s-.1,0-.2,0h-.4v.4c0,0,0,.2,0,.2s-.1,0-.2,0h-1.9c0,0-.2,0-.2,0,0,0,0-.1,0-.2v-.4h-.4c0,0-.2,0-.2,0,0,0,0-.1,0-.2v-3.9c0,0,0-.2,0-.2s.1,0,.2,0h.4v-.4c0,0,0-.2,0-.2s.1,0,.2,0h1.9ZM365.5,205.1v-4.4h-2.4v4.4h2.4Z"/>
      <path class="st1" d="M369.5,200.6h.4c0,0,.2,0,.2,0,0,0,0,.1,0,.2v4.1h1.5v.7h-1.3c0,0-.2,0-.2,0,0,0,0-.1,0-.2v-.4h-.7v.4c0,0,0,.2,0,.2s-.1,0-.2,0h-1.3v-.7h1.5v-4.4h-1.5v-.7h1.3c0,0,.2,0,.2,0,0,0,0,.1,0,.2v.4Z"/>
    </g>
    <g>
      <path class="st1" d="M73.7,225v46.5h-12.3v-20.2h-19.1v20.2h-12.3v-46.5h12.3v17.6h19.1v-17.6h12.3Z"/>
      <path class="st1" d="M107,252.8v18.7h-12.3v-18.5l-17.2-27.9h12.9l10.4,19,10.5-19h12.8l-17.1,27.7Z"/>
      <path class="st1" d="M161.7,228.7c3.1,2.5,4.6,6.4,4.6,11.7s-1.5,9.2-4.6,11.7c-3.1,2.5-7.9,3.7-14.6,3.7h-7v15.7h-12.3v-46.5h19.3c6.6,0,11.5,1.2,14.6,3.7ZM152.4,245.6c1-1.1,1.6-2.8,1.6-5.2s-.5-4.2-1.6-5.2c-1-1.1-2.8-1.6-5.3-1.6h-7v13.7h7c2.5,0,4.2-.6,5.3-1.7Z"/>
      <path class="st1" d="M203.2,263v8.5h-31.5v-46.5h30.1v8.5h-17.8v9.1h15.1v8.5h-15.1v11.8h19.2Z"/>
      <path class="st1" d="M228.9,254.4h-6.6v17.1h-12.3v-46.5h18.6c6.6,0,11.5,1.1,14.6,3.4,3.1,2.3,4.6,5.8,4.6,10.6s-2.3,10.5-6.9,12.6l13.1,19.8h-14.2l-10.8-17.1ZM222.4,245.9h6.3c2.4,0,4.2-.5,5.2-1.5,1.1-1,1.6-2.6,1.6-4.6s-.5-3.8-1.6-4.7c-1-1-2.8-1.4-5.3-1.4h-6.3v12.3Z"/>
      <g>
        <path class="st1" d="M255.3,268.4l2.2-5.5c4.1,2.5,8.7,3.8,13.8,3.8s5.4-.7,7.3-2c1.9-1.3,2.9-3.2,2.9-5.5s-.5-2.7-1.4-3.7c-.9-1-2.1-1.8-3.5-2.5-1.4-.7-3.3-1.4-5.6-2.3-3-1-5.4-2-7.2-3-1.9-.9-3.5-2.2-4.8-3.9-1.3-1.7-2-3.8-2-6.4,0-4.2,1.5-7.5,4.6-9.8,3.1-2.3,7-3.5,12-3.5s10,1.3,14.1,4l-2.3,5.5c-3.8-2.4-7.7-3.6-11.7-3.6s-4.9.6-6.6,1.8c-1.7,1.2-2.5,2.9-2.5,5.2s.4,2.5,1.3,3.5c.9,1,2,1.8,3.4,2.4,1.4.6,3.2,1.4,5.6,2.3,3.1,1.1,5.5,2.2,7.4,3.1,1.9,1,3.5,2.3,4.8,4,1.3,1.7,2,3.9,2,6.5,0,4.3-1.6,7.7-4.8,10.1-3.2,2.5-7.6,3.7-13.1,3.7s-11.7-1.4-16-4.1Z"/>
        <path class="st1" d="M326.4,265.8v5.7h-29.2v-46.5h27.9v5.7h-20.1v13.4h17.4v5.7h-17.4v16.1h21.5Z"/>
        <path class="st1" d="M341.9,269.1c-3.6-2.2-6.3-5.2-8.1-8.8-1.8-3.7-2.7-7.7-2.7-12.1s.9-8.3,2.8-12c1.9-3.7,4.7-6.6,8.4-8.8,3.8-2.2,8.3-3.3,13.6-3.3s5.7.4,8.3,1.3c2.6.9,4.8,2.1,6.7,3.7l-2.5,5.3c-1.5-1.3-3.3-2.4-5.5-3.2-2.2-.8-4.5-1.2-7-1.2-3.6,0-6.7.8-9.3,2.4-2.6,1.6-4.5,3.8-5.8,6.5-1.3,2.8-2,5.9-2,9.3s.6,6.7,1.9,9.4c1.3,2.8,3.1,5,5.5,6.6,2.4,1.6,5.4,2.4,8.8,2.4,5.3,0,10-1.8,14-5.5l2.3,5.2c-2,1.8-4.5,3.3-7.2,4.4-2.8,1.1-5.8,1.7-9.1,1.7-5.2,0-9.7-1.1-13.3-3.3Z"/>
      </g>
      <polygon class="st1" points="103.3 239.5 100.8 244 90.4 225 104.9 251.4 103.3 239.5"/>
    </g>
    <g>
      <path class="st1" d="M214.5,187.7c0,0,0,.1,0,.2,0,0,0-.1.1-.2,0,0,0,0,0,0Z"/>
      <path class="st1" d="M257.7,202.5c-1.7-2.3-2.5-5.8-3.4-7.9-.9-2.1.5-3.3,1.9-4.9,1.4-1.6,1.4-4,1.1-5.4s-1.9-4.3-3.5-7.9c-1.6-3.6-6.8-4.5-8.1-6-1.3-1.5-5.1-4.5-7.1-5.8-2.7-1.8-4.1-5.7-10.2-8.6-6.6-3.1-12.7-1.9-19.1-2.6-3.6-.4-8.2-.8-11.5-1.1-3-.3-5.9-.8-8.7-1.7-3.6-1.1-8.2-2.1-11.7-.5-6.1,2.8-12,3.7-16.5,2.6-10.8-1.9-15.8-16.7-6.4-25.2,0,0-5.8-.1-8.1,6.2-1.3,3.7-1.3,7.7-.2,11.3,2.2,7.2,8.8,12.3,16.4,12.5h0c-2.2,2.5-3.6,7.6-6.6,16.4-2.9,8.4-4.1,6.7-6.3,9.8-.9,1-1.5,2.5-1.5,2.5,0,.2-.2.4-.3.6-.9,1.9-4.3,15.3-4.3,15.3,0,0-.3.7.9,1.3.8.4,1.3.8,1.5,1.2,0,.3.4.5.7.5h6.9c.1-2.3-5.3-3.4-5.3-3.4,0,0,5.5-15.9,8.3-16.9,2.5-.9,9.3-6.6,12.7-9.5,1.8,3.5,4.7,7,6.2,8.8.7.8,1.1,1.7,1.2,2.7l1,8.2c.3,1,.8,2.3,2.4,3.2,2.5,2,6.2,4,6.2,4,0,0-.3.8,1,1.3,1,.3,1.2.8,1.3,1.3,0,.3.4.5.7.5h7.5c.1-2.3-5.8-3.4-5.8-3.4,0,0-2.8-3.1-5.3-6.4-1.4-2.1-3-5.1-.5-11,1.2-2.8,1.3-5.5.8-7.8h0s0,0,0,0c-.2-1.5-.8-3.2-1.9-4.5,0,0,2.4,1.7,3.4,6.1,4.7,5,11.3,9.5,17.8,9.3-1.5,6.4-.3,8.4-.3,8.4l3.5,6.3c0,0-.2.7.9,1.3.8.4,1.3.8,1.5,1.2,0,.3.4.5.7.5h6.9c.1-2.3-5.3-3.4-5.3-3.4,0,0-.3-.1-.8-.2l-1.8-6.3h0c0-.2,1-3.1,3.2-6.5,0,0,.4-.7.7-1.3,0,0,0-.1,0-.2,0,0,0,0,0,0,.8-1.3,1.9-3.4,2.3-5.3,0,0-2,3-2.8,5.3,1.9,0,5.3-.2,5.3-.2l.3,1.6c.3,3.6,1.5,6,2,6.8.5.9,2.3,4.1,3.8,6.5,0,0,0,0,0,0,0,0-.3.7.8,1.3.7.4,1.1.8,1.2,1.2,0,.3.3.5.6.5h5.8c0-1.8-2.6-2.8-3.8-3.2-1.5-2.6-3.6-6.7-3.7-7.9-.2-1.7-.3-4.6.2-6.8v-.4h.4c.2,0,.4,0,.6,0h0c.1,0,.2,0,.4.1.1,0,1.7.6,3,1.1,0-1,0-2,.3-3,.4-1.5,1.6-2.4,2.9-3.1.7-.4,1.4-.9,2.1-1.3-3,3.2-4.6,2.6-4.2,7.7,0,.8,0,1.6-.2,2.4-.1,1.9-.7,3.1-1.4,5.6-.9,3.3,3.6,5,6,6.8,2.4,1.9,5,0,5.7-4.1,0-.4.3-5,.6-7.5.9,2.4-.3,9.6,1.8,12.4,2.1,2.8,9.4.3,9.4.3,1.2,0,4.9-.6,3.7-2.3Z"/>
    </g>
  </g>
</svg>