<?xml version="1.0" encoding="UTF-8" standalone="no"?>
<svg
   id="Layer_1"
   version="1.1"
   viewBox="0 0 890 520"
   sodipodi:docname="logo_hyperi_primary.svg"
   width="890"
   height="520"
   inkscape:version="1.4.2 (f4327f4, 2025-05-13)"
   xmlns:inkscape="http://www.inkscape.org/namespaces/inkscape"
   xmlns:sodipodi="http://sodipodi.sourceforge.net/DTD/sodipodi-0.dtd"
   xmlns="http://www.w3.org/2000/svg"
   xmlns:svg="http://www.w3.org/2000/svg">
  <sodipodi:namedview
     id="namedview30"
     pagecolor="#ffffff"
     bordercolor="#000000"
     borderopacity="0.25"
     inkscape:showpageshadow="2"
     inkscape:pageopacity="0.0"
     inkscape:pagecheckerboard="0"
     inkscape:deskcolor="#d1d1d1"
     inkscape:zoom="1.9208333"
     inkscape:cx="581.77874"
     inkscape:cy="283.47072"
     inkscape:window-width="3840"
     inkscape:window-height="2054"
     inkscape:window-x="-11"
     inkscape:window-y="-11"
     inkscape:window-maximized="1"
     inkscape:current-layer="Layer_1" />
  <!-- Generator: Adobe Illustrator 29.4.0, SVG Export Plug-In . SVG Version: 2.1.0 Build 152)  -->
  <defs
     id="defs1">
    <rect
       x="264.98914"
       y="320.69415"
       width="419.08893"
       height="197.8308"
       id="rect31" />
    <style
       id="style1">
      .st0 {
        fill: #000647;
      }
    </style>
  </defs>
  <g
     id="g20"
     transform="translate(-739.78308,-163.47072)">
    <path
       class="st0"
       d="m 1212,452.2 c 0.3,0 0.6,0 0.8,0.3 0.2,0.2 0.3,0.5 0.3,0.8 v 1.6 h 1.6 c 0.3,0 0.6,0 0.8,0.3 0.2,0.2 0.3,0.5 0.3,0.8 v 14.7 c 0,0.3 0,0.6 -0.3,0.8 -0.3,0.2 -0.5,0.3 -0.8,0.3 h -1.6 v 1.6 c 0,0.3 0,0.6 -0.3,0.8 -0.3,0.2 -0.5,0.3 -0.8,0.3 h -7.2 c -0.3,0 -0.6,0 -0.8,-0.3 -0.2,-0.2 -0.3,-0.5 -0.3,-0.8 v -1.6 h -1.6 c -0.3,0 -0.6,0 -0.8,-0.3 -0.2,-0.2 -0.3,-0.5 -0.3,-0.8 V 456 c 0,-0.3 0,-0.6 0.3,-0.8 0.2,-0.2 0.5,-0.3 0.8,-0.3 h 1.6 v -1.6 c 0,-0.3 0,-0.6 0.3,-0.8 0.3,-0.2 0.5,-0.3 0.8,-0.3 z m 1.1,19.5 v -16.8 h -9.3 v 16.8 z"
       id="path1" />
    <path
       class="st0"
       d="m 1228.3,454.8 h 1.6 c 0.3,0 0.6,0 0.8,0.3 0.2,0.2 0.3,0.5 0.3,0.8 v 15.8 h 5.8 v 2.7 h -4.8 c -0.3,0 -0.6,0 -0.8,-0.3 -0.2,-0.2 -0.3,-0.5 -0.3,-0.8 v -1.6 h -2.6 v 1.6 c 0,0.3 0,0.6 -0.3,0.8 -0.3,0.2 -0.5,0.3 -0.8,0.3 h -4.8 v -2.7 h 5.8 v -16.8 h -5.8 v -2.7 h 4.8 c 0.3,0 0.6,0 0.8,0.3 0.2,0.2 0.3,0.5 0.3,0.8 v 1.6 z"
       id="path2" />
    <path
       class="st0"
       d="m 1254.4,452.2 c 0.3,0 0.6,0 0.8,0.3 0.2,0.2 0.3,0.5 0.3,0.8 v 1.6 h 1.6 c 0.3,0 0.6,0 0.8,0.3 0.2,0.2 0.3,0.5 0.3,0.8 v 14.7 c 0,0.3 0,0.6 -0.3,0.8 -0.2,0.2 -0.5,0.3 -0.8,0.3 h -1.6 v 1.6 c 0,0.3 0,0.6 -0.3,0.8 -0.3,0.2 -0.5,0.3 -0.8,0.3 h -7.2 c -0.3,0 -0.6,0 -0.8,-0.3 -0.2,-0.2 -0.3,-0.5 -0.3,-0.8 v -1.6 h -1.6 c -0.3,0 -0.6,0 -0.8,-0.3 -0.2,-0.2 -0.3,-0.5 -0.3,-0.8 V 456 c 0,-0.3 0,-0.6 0.3,-0.8 0.2,-0.2 0.5,-0.3 0.8,-0.3 h 1.6 v -1.6 c 0,-0.3 0,-0.6 0.3,-0.8 0.3,-0.2 0.5,-0.3 0.8,-0.3 z m 1.1,19.5 v -16.8 h -9.3 v 16.8 z"
       id="path3" />
    <path
       class="st0"
       d="m 1270.7,454.8 h 1.6 c 0.3,0 0.6,0 0.8,0.3 0.2,0.2 0.3,0.5 0.3,0.8 v 15.8 h 5.8 v 2.7 h -4.8 c -0.3,0 -0.6,0 -0.8,-0.3 -0.2,-0.2 -0.3,-0.5 -0.3,-0.8 v -1.6 h -2.6 v 1.6 c 0,0.3 0,0.6 -0.3,0.8 -0.3,0.2 -0.5,0.3 -0.8,0.3 h -4.8 v -2.7 h 5.8 v -16.8 h -5.8 v -2.7 h 4.8 c 0.3,0 0.6,0 0.8,0.3 0.2,0.2 0.3,0.5 0.3,0.8 v 1.6 z"
       id="path4" />
    <path
       class="st0"
       d="m 1291.2,454.8 h 1.6 c 0.3,0 0.6,0 0.8,0.3 0.2,0.2 0.3,0.5 0.3,0.8 v 15.8 h 5.8 v 2.7 h -4.8 c -0.3,0 -0.6,0 -0.8,-0.3 -0.2,-0.2 -0.3,-0.5 -0.3,-0.8 v -1.6 h -2.6 v 1.6 c 0,0.3 0,0.6 -0.3,0.8 -0.2,0.2 -0.5,0.3 -0.8,0.3 h -4.8 v -2.7 h 5.8 v -16.8 h -5.8 v -2.7 h 4.8 c 0.3,0 0.6,0 0.8,0.3 0.2,0.2 0.3,0.5 0.3,0.8 v 1.6 z"
       id="path5" />
    <path
       class="st0"
       d="m 1317.3,452.2 c 0.3,0 0.6,0 0.8,0.3 0.2,0.2 0.3,0.5 0.3,0.8 v 1.6 h 1.6 c 0.3,0 0.6,0 0.8,0.3 0.2,0.2 0.3,0.5 0.3,0.8 v 14.7 c 0,0.3 0,0.6 -0.3,0.8 -0.3,0.2 -0.5,0.3 -0.8,0.3 h -1.6 v 1.6 c 0,0.3 0,0.6 -0.3,0.8 -0.2,0.2 -0.5,0.3 -0.8,0.3 h -7.2 c -0.3,0 -0.6,0 -0.8,-0.3 -0.2,-0.2 -0.3,-0.5 -0.3,-0.8 v -1.6 h -1.6 c -0.3,0 -0.6,0 -0.8,-0.3 -0.2,-0.2 -0.3,-0.5 -0.3,-0.8 V 456 c 0,-0.3 0,-0.6 0.3,-0.8 0.2,-0.2 0.5,-0.3 0.8,-0.3 h 1.6 v -1.6 c 0,-0.3 0,-0.6 0.3,-0.8 0.3,-0.2 0.5,-0.3 0.8,-0.3 z m 1,19.5 v -16.8 h -9.3 v 16.8 z"
       id="path6" />
    <path
       class="st0"
       d="m 1339.3,452.2 c 0.3,0 0.6,0 0.8,0.3 0.2,0.2 0.3,0.5 0.3,0.8 v 1.6 h 1.6 c 0.3,0 0.6,0 0.8,0.3 0.2,0.2 0.3,0.5 0.3,0.8 v 14.7 c 0,0.3 0,0.6 -0.3,0.8 -0.2,0.2 -0.5,0.3 -0.8,0.3 h -1.6 v 1.6 c 0,0.3 0,0.6 -0.3,0.8 -0.2,0.2 -0.5,0.3 -0.8,0.3 h -7.2 c -0.3,0 -0.6,0 -0.8,-0.3 -0.2,-0.2 -0.3,-0.5 -0.3,-0.8 v -1.6 h -1.6 c -0.3,0 -0.6,0 -0.8,-0.3 -0.2,-0.2 -0.3,-0.5 -0.3,-0.8 V 456 c 0,-0.3 0,-0.6 0.3,-0.8 0.3,-0.2 0.5,-0.3 0.8,-0.3 h 1.6 v -1.6 c 0,-0.3 0,-0.6 0.3,-0.8 0.2,-0.2 0.5,-0.3 0.8,-0.3 z m 1,19.5 v -16.8 h -9.3 v 16.8 z"
       id="path7" />
    <path
       class="st0"
       d="m 1361.3,452.2 c 0.3,0 0.6,0 0.8,0.3 0.2,0.2 0.3,0.5 0.3,0.8 v 1.6 h 1.6 c 0.3,0 0.6,0 0.8,0.3 0.2,0.2 0.3,0.5 0.3,0.8 v 14.7 c 0,0.3 0,0.6 -0.3,0.8 -0.3,0.2 -0.5,0.3 -0.8,0.3 h -1.6 v 1.6 c 0,0.3 0,0.6 -0.3,0.8 -0.2,0.2 -0.5,0.3 -0.8,0.3 h -7.2 c -0.3,0 -0.6,0 -0.8,-0.3 -0.2,-0.2 -0.3,-0.5 -0.3,-0.8 v -1.6 h -1.6 c -0.3,0 -0.6,0 -0.8,-0.3 -0.2,-0.2 -0.3,-0.5 -0.3,-0.8 V 456 c 0,-0.3 0,-0.6 0.3,-0.8 0.2,-0.2 0.5,-0.3 0.8,-0.3 h 1.6 v -1.6 c 0,-0.3 0,-0.6 0.3,-0.8 0.3,-0.2 0.5,-0.3 0.8,-0.3 z m 1,19.5 v -16.8 h -9.3 v 16.8 z"
       id="path8" />
    <path
       class="st0"
       d="m 1377.6,454.8 h 1.6 c 0.3,0 0.6,0 0.8,0.3 0.2,0.2 0.3,0.5 0.3,0.8 v 15.8 h 5.8 v 2.7 h -4.8 c -0.3,0 -0.6,0 -0.8,-0.3 -0.2,-0.2 -0.3,-0.5 -0.3,-0.8 v -1.6 h -2.6 v 1.6 c 0,0.3 0,0.6 -0.3,0.8 -0.2,0.2 -0.5,0.3 -0.8,0.3 h -4.8 v -2.7 h 5.8 v -16.8 h -5.8 v -2.7 h 4.8 c 0.3,0 0.6,0 0.8,0.3 0.2,0.2 0.3,0.5 0.3,0.8 v 1.6 z"
       id="path9" />
    <path
       class="st0"
       d="m 1403.7,452.2 c 0.3,0 0.6,0 0.8,0.3 0.2,0.2 0.3,0.5 0.3,0.8 v 1.6 h 1.6 c 0.3,0 0.6,0 0.8,0.3 0.2,0.2 0.3,0.5 0.3,0.8 v 14.7 c 0,0.3 0,0.6 -0.3,0.8 -0.3,0.2 -0.5,0.3 -0.8,0.3 h -1.6 v 1.6 c 0,0.3 0,0.6 -0.3,0.8 -0.3,0.2 -0.5,0.3 -0.8,0.3 h -7.2 c -0.3,0 -0.6,0 -0.8,-0.3 -0.2,-0.2 -0.3,-0.5 -0.3,-0.8 v -1.6 h -1.6 c -0.3,0 -0.6,0 -0.8,-0.3 -0.2,-0.2 -0.3,-0.5 -0.3,-0.8 V 456 c 0,-0.3 0,-0.6 0.3,-0.8 0.2,-0.2 0.5,-0.3 0.8,-0.3 h 1.6 v -1.6 c 0,-0.3 0,-0.6 0.3,-0.8 0.2,-0.2 0.5,-0.3 0.8,-0.3 z m 1,19.5 v -16.8 h -9.3 v 16.8 z"
       id="path10" />
    <path
       class="st0"
       d="m 1420,454.8 h 1.6 c 0.3,0 0.6,0 0.8,0.3 0.2,0.2 0.3,0.5 0.3,0.8 v 15.8 h 5.8 v 2.7 h -4.8 c -0.3,0 -0.6,0 -0.8,-0.3 -0.2,-0.2 -0.3,-0.5 -0.3,-0.8 v -1.6 h -2.6 v 1.6 c 0,0.3 0,0.6 -0.3,0.8 -0.3,0.2 -0.5,0.3 -0.8,0.3 h -4.8 v -2.7 h 5.8 v -16.8 h -5.8 v -2.7 h 4.8 c 0.3,0 0.6,0 0.8,0.3 0.2,0.2 0.3,0.5 0.3,0.8 v 1.6 z"
       id="path11" />
    <path
       class="st0"
       d="m 1440.4,454.8 h 1.6 c 0.3,0 0.6,0 0.8,0.3 0.2,0.2 0.3,0.5 0.3,0.8 v 15.8 h 5.8 v 2.7 h -4.8 c -0.3,0 -0.6,0 -0.8,-0.3 -0.2,-0.2 -0.3,-0.5 -0.3,-0.8 v -1.6 h -2.6 v 1.6 c 0,0.3 0,0.6 -0.3,0.8 -0.3,0.2 -0.5,0.3 -0.8,0.3 h -4.8 v -2.7 h 5.8 v -16.8 h -5.8 v -2.7 h 4.8 c 0.3,0 0.6,0 0.8,0.3 0.2,0.2 0.3,0.5 0.3,0.8 v 1.6 z"
       id="path12" />
    <path
       class="st0"
       d="m 1466.6,452.2 c 0.3,0 0.6,0 0.8,0.3 0.2,0.2 0.3,0.5 0.3,0.8 v 1.6 h 1.6 c 0.3,0 0.6,0 0.8,0.3 0.2,0.2 0.3,0.5 0.3,0.8 v 14.7 c 0,0.3 0,0.6 -0.3,0.8 -0.2,0.2 -0.5,0.3 -0.8,0.3 h -1.6 v 1.6 c 0,0.3 0,0.6 -0.3,0.8 -0.3,0.2 -0.5,0.3 -0.8,0.3 h -7.2 c -0.3,0 -0.6,0 -0.8,-0.3 -0.2,-0.2 -0.3,-0.5 -0.3,-0.8 v -1.6 h -1.6 c -0.3,0 -0.6,0 -0.8,-0.3 -0.2,-0.2 -0.3,-0.5 -0.3,-0.8 V 456 c 0,-0.3 0,-0.6 0.3,-0.8 0.3,-0.2 0.5,-0.3 0.8,-0.3 h 1.6 v -1.6 c 0,-0.3 0,-0.6 0.3,-0.8 0.3,-0.2 0.5,-0.3 0.8,-0.3 z m 1,19.5 v -16.8 h -9.3 v 16.8 z"
       id="path13" />
    <path
       class="st0"
       d="m 1488.5,452.2 c 0.3,0 0.6,0 0.8,0.3 0.2,0.2 0.3,0.5 0.3,0.8 v 1.6 h 1.6 c 0.3,0 0.6,0 0.8,0.3 0.2,0.2 0.3,0.5 0.3,0.8 v 14.7 c 0,0.3 0,0.6 -0.3,0.8 -0.3,0.2 -0.5,0.3 -0.8,0.3 h -1.6 v 1.6 c 0,0.3 0,0.6 -0.3,0.8 -0.2,0.2 -0.5,0.3 -0.8,0.3 h -7.2 c -0.3,0 -0.6,0 -0.8,-0.3 -0.2,-0.2 -0.3,-0.5 -0.3,-0.8 v -1.6 h -1.6 c -0.3,0 -0.6,0 -0.8,-0.3 -0.2,-0.2 -0.3,-0.5 -0.3,-0.8 V 456 c 0,-0.3 0,-0.6 0.3,-0.8 0.3,-0.2 0.5,-0.3 0.8,-0.3 h 1.6 v -1.6 c 0,-0.3 0,-0.6 0.3,-0.8 0.2,-0.2 0.5,-0.3 0.8,-0.3 z m 1.1,19.5 v -16.8 h -9.3 v 16.8 z"
       id="path14" />
    <path
       class="st0"
       d="m 1510.5,452.2 c 0.3,0 0.6,0 0.8,0.3 0.2,0.2 0.3,0.5 0.3,0.8 v 1.6 h 1.6 c 0.3,0 0.6,0 0.8,0.3 0.2,0.2 0.3,0.5 0.3,0.8 v 14.7 c 0,0.3 0,0.6 -0.3,0.8 -0.3,0.2 -0.5,0.3 -0.8,0.3 h -1.6 v 1.6 c 0,0.3 0,0.6 -0.3,0.8 -0.3,0.2 -0.5,0.3 -0.8,0.3 h -7.2 c -0.3,0 -0.6,0 -0.8,-0.3 -0.2,-0.2 -0.3,-0.5 -0.3,-0.8 v -1.6 h -1.6 c -0.3,0 -0.6,0 -0.8,-0.3 -0.2,-0.2 -0.3,-0.5 -0.3,-0.8 V 456 c 0,-0.3 0,-0.6 0.3,-0.8 0.3,-0.2 0.5,-0.3 0.8,-0.3 h 1.6 v -1.6 c 0,-0.3 0,-0.6 0.3,-0.8 0.3,-0.2 0.5,-0.3 0.8,-0.3 z m 1.1,19.5 v -16.8 h -9.3 v 16.8 z"
       id="path15" />
    <path
       class="st0"
       d="m 1526.8,454.8 h 1.6 c 0.3,0 0.6,0 0.8,0.3 0.2,0.2 0.3,0.5 0.3,0.8 v 15.8 h 5.8 v 2.7 h -4.8 c -0.3,0 -0.6,0 -0.8,-0.3 -0.2,-0.2 -0.3,-0.5 -0.3,-0.8 v -1.6 h -2.6 v 1.6 c 0,0.3 0,0.6 -0.3,0.8 -0.3,0.2 -0.5,0.3 -0.8,0.3 h -4.8 v -2.7 h 5.8 v -16.8 h -5.8 v -2.7 h 4.8 c 0.3,0 0.6,0 0.8,0.3 0.2,0.2 0.3,0.5 0.3,0.8 v 1.6 z"
       id="path16" />
    <path
       class="st0"
       d="m 1547.3,454.8 h 1.6 c 0.3,0 0.6,0 0.8,0.3 0.2,0.2 0.3,0.5 0.3,0.8 v 15.8 h 5.8 v 2.7 h -4.8 c -0.3,0 -0.6,0 -0.8,-0.3 -0.2,-0.2 -0.3,-0.5 -0.3,-0.8 v -1.6 h -2.6 v 1.6 c 0,0.3 0,0.6 -0.3,0.8 -0.2,0.2 -0.5,0.3 -0.8,0.3 h -4.8 v -2.7 h 5.8 v -16.8 h -5.8 v -2.7 h 4.8 c 0.3,0 0.6,0 0.8,0.3 0.2,0.2 0.3,0.5 0.3,0.8 v 1.6 z"
       id="path17" />
    <path
       class="st0"
       d="m 1573.4,452.2 c 0.3,0 0.6,0 0.8,0.3 0.2,0.2 0.3,0.5 0.3,0.8 v 1.6 h 1.6 c 0.3,0 0.6,0 0.8,0.3 0.2,0.2 0.3,0.5 0.3,0.8 v 14.7 c 0,0.3 0,0.6 -0.3,0.8 -0.2,0.2 -0.5,0.3 -0.8,0.3 h -1.6 v 1.6 c 0,0.3 0,0.6 -0.3,0.8 -0.3,0.2 -0.5,0.3 -0.8,0.3 h -7.2 c -0.3,0 -0.6,0 -0.8,-0.3 -0.2,-0.2 -0.3,-0.5 -0.3,-0.8 v -1.6 h -1.6 c -0.3,0 -0.6,0 -0.8,-0.3 -0.2,-0.2 -0.3,-0.5 -0.3,-0.8 V 456 c 0,-0.3 0,-0.6 0.3,-0.8 0.3,-0.2 0.5,-0.3 0.8,-0.3 h 1.6 v -1.6 c 0,-0.3 0,-0.6 0.3,-0.8 0.3,-0.2 0.5,-0.3 0.8,-0.3 z m 1.1,19.5 v -16.8 h -9.3 v 16.8 z"
       id="path18" />
    <path
       class="st0"
       d="m 1595.4,452.2 c 0.3,0 0.6,0 0.8,0.3 0.2,0.2 0.3,0.5 0.3,0.8 v 1.6 h 1.6 c 0.3,0 0.6,0 0.8,0.3 0.2,0.2 0.3,0.5 0.3,0.8 v 14.7 c 0,0.3 0,0.6 -0.3,0.8 -0.3,0.2 -0.5,0.3 -0.8,0.3 h -1.6 v 1.6 c 0,0.3 0,0.6 -0.3,0.8 -0.3,0.2 -0.5,0.3 -0.8,0.3 h -7.2 c -0.3,0 -0.6,0 -0.8,-0.3 -0.2,-0.2 -0.3,-0.5 -0.3,-0.8 v -1.6 h -1.6 c -0.3,0 -0.6,0 -0.8,-0.3 -0.2,-0.2 -0.3,-0.5 -0.3,-0.8 V 456 c 0,-0.3 0,-0.6 0.3,-0.8 0.3,-0.2 0.5,-0.3 0.8,-0.3 h 1.6 v -1.6 c 0,-0.3 0,-0.6 0.3,-0.8 0.2,-0.2 0.5,-0.3 0.8,-0.3 z m 1,19.5 v -16.8 h -9.3 v 16.8 z"
       id="path19" />
    <path
       class="st0"
       d="m 1611.7,454.8 h 1.6 c 0.3,0 0.6,0 0.8,0.3 0.2,0.2 0.3,0.5 0.3,0.8 v 15.8 h 5.8 v 2.7 h -4.8 c -0.3,0 -0.6,0 -0.8,-0.3 -0.2,-0.2 -0.3,-0.5 -0.3,-0.8 v -1.6 h -2.6 v 1.6 c 0,0.3 0,0.6 -0.3,0.8 -0.2,0.2 -0.5,0.3 -0.8,0.3 h -4.8 v -2.7 h 5.8 v -16.8 h -5.8 v -2.7 h 4.8 c 0.3,0 0.6,0 0.8,0.3 0.2,0.2 0.3,0.5 0.3,0.8 v 1.6 z"
       id="path20" />
  </g>
  <g
     id="g30"
     transform="translate(-739.78308,-163.47072)">
    <path
       class="st0"
       d="m 1021,405.4 c -0.1,0.2 -0.2,0.4 -0.3,0.6 0.1,-0.2 0.3,-0.4 0.4,-0.7 0,0 0,0 0,0 z"
       id="path29" />
    <path
       class="st0"
       d="m 1185.5,462.1 c -6.6,-8.7 -9.4,-22.3 -12.8,-30.3 -3.4,-8 2,-12.7 7.3,-18.8 5.3,-6.1 5.4,-15.3 4.2,-20.6 -1.1,-5.3 -7.2,-16.3 -13.3,-30 -6.1,-13.6 -25.9,-17.2 -30.8,-22.9 -4.9,-5.7 -19.6,-17.3 -26.9,-22 -10.4,-6.7 -15.8,-21.7 -39,-32.7 -25,-11.8 -48.5,-7.3 -72.8,-10 -13.9,-1.5 -31.5,-3.2 -43.9,-4.3 -11.2,-1 -22.4,-3.2 -33.2,-6.4 -13.7,-4.1 -31.3,-8.1 -44.6,-2 -23.3,10.7 -45.6,14.1 -63.1,10 -41,-7.3 -60.2,-63.7 -24.3,-96.1 0,0 -22.3,-0.5 -30.9,23.6 -5.1,14.2 -5.1,29.4 -1,43.2 8.3,27.6 33.6,46.8 62.4,47.8 h 0.2 c -8.5,9.5 -13.6,29 -25.1,62.7 -10.9,32.1 -15.5,25.6 -24.1,37.4 -3.4,3.8 -5.7,9.6 -5.7,9.6 -0.3,0.7 -0.7,1.4 -1.1,2.2 -3.4,7.2 -16.6,58.5 -16.6,58.5 0,0 -1.3,2.6 3.4,5 3.1,1.7 5,2.9 5.6,4.7 0.4,1.1 1.4,2 2.6,2 h 26.2 c 0.5,-9 -20,-12.8 -20,-12.8 0,0 20.9,-60.5 31.5,-64.4 9.7,-3.6 35.4,-25.1 48.5,-36.4 6.8,13.5 17.8,26.8 23.6,33.4 2.5,2.9 4.1,6.5 4.6,10.3 l 3.7,31.1 c 1,3.7 2.9,8.7 9.2,12.2 9.7,7.4 23.6,15.4 23.6,15.4 0,0 -1,3.2 4,4.9 3.9,1.3 4.4,3.1 5,5 0.3,1.1 1.4,1.9 2.6,1.9 H 953 c 0.5,-9 -22.3,-12.8 -22.3,-12.8 0,0 -10.6,-12 -20.1,-24.6 -5.4,-8 -11.4,-19.6 -2,-42 4.5,-10.7 4.9,-20.8 3.2,-29.8 h 0.2 c 0,0.2 0,0.2 0.1,0.3 -0.9,-5.9 -2.9,-12.2 -7.2,-17.2 0,0 9.2,6.4 12.9,23.4 18.1,19 43.1,36.4 67.8,35.3 -5.6,24.5 -1.3,32 -1.3,32 l 13.4,24.1 c -0.1,0.3 -0.9,2.7 3.4,5 3.1,1.7 5,2.9 5.6,4.8 0.4,1.1 1.4,1.9 2.6,1.9 h 26.4 c 0.5,-9 -20.2,-12.8 -20.2,-12.8 0,0 -1.3,-0.4 -3.1,-0.9 l -6.8,-24.1 v -0.5 c 0.3,-0.4 3.9,-11.1 12.2,-24.2 0,0 1.4,-2.7 2.8,-4.9 0,-0.2 0.2,-0.4 0.3,-0.6 0,0 0,0 0,0 2.9,-4.9 7.2,-13.1 8.6,-20 0,0 -7.5,11.4 -10.8,20.2 7.4,-0.3 20.1,-0.9 20.1,-0.9 l 1.1,6.1 c 1,13.6 5.8,22.8 7.6,26.1 2,3.5 8.9,15.5 14.7,24.8 0,0.1 -0.1,0.2 -0.2,0.3 0,0 -1.1,2.6 2.9,5 2.6,1.7 4.2,2.9 4.7,4.8 0.3,1.1 1.2,1.9 2.2,1.9 h 22.1 c 0.3,-6.9 -9.8,-10.7 -14.5,-12.2 -5.8,-10 -13.6,-25.5 -14,-30.2 -0.8,-6.4 -1.2,-17.7 0.7,-26.1 l 0.3,-1.4 h 1.4 c 0.9,0 1.7,0.1 2.3,0.3 h 0.1 c 0.5,0.1 0.9,0.3 1.4,0.5 0.5,0.2 6.5,2.4 11.5,4.1 -0.1,-3.8 0,-7.7 1.1,-11.5 1.7,-5.8 6.1,-9.3 11.2,-11.9 2.6,-1.5 5.5,-3.3 8.1,-4.8 -11.4,12.1 -17.5,10 -16,29.5 0.3,3 -0.2,6.2 -0.8,9.3 -0.6,7.2 -2.7,12 -5.1,21.4 -3.3,12.6 13.9,19 23,26.1 9.1,7.1 19.2,-0.4 21.7,-15.7 0.3,-1.7 1.3,-19.2 2.2,-28.6 3.3,9.2 -1.1,36.8 6.7,47.2 8,10.6 36,1.1 36,1.1 4.5,-0.4 18.9,-2.2 14,-8.7 z"
       id="path30" />
  </g>
  <text
     xml:space="preserve"
     id="text31"
     style="font-style:normal;font-variant:normal;font-weight:800;font-stretch:normal;font-size:96px;font-family:Montserrat;-inkscape-font-specification:'Montserrat Ultra-Bold';text-align:start;writing-mode:lr-tb;direction:ltr;white-space:pre;shape-inside:url(#rect31);display:inline;fill:#000647;fill-opacity:1"
     transform="translate(5.2060738,9.8915401)" />
  <text
     xml:space="preserve"
     style="font-style:normal;font-variant:normal;font-weight:800;font-stretch:normal;font-size:243.732px;font-family:Montserrat;-inkscape-font-specification:'Montserrat Ultra-Bold';text-align:start;writing-mode:lr-tb;direction:ltr;text-anchor:start;fill:#000647;fill-opacity:1;stroke-width:2.53889"
     x="-5.9581733"
     y="476.7323"
     id="text32"
     transform="scale(0.93345902,1.0712843)"><tspan
       sodipodi:role="line"
       id="tspan32"
       x="-5.9581733"
       y="476.7323"
       style="stroke-width:2.53889">HYPERI</tspan></text>
</svg>
